Coordinates
version=1
nRows=7
nColumns=40
inDegrees=yes

Units are S.I. units (second, meters, Newtons, ...)
If the header above contains a line with 'inDegrees', this indicates whether rotational values are in degrees (yes) or radians (no).

endheader
time	pelvis_tilt	pelvis_list	pelvis_rotation	pelvis_tx	pelvis_ty	pelvis_tz	hip_flexion_r	hip_adduction_r	hip_rotation_r	knee_angle_r	knee_angle_r_beta	ankle_angle_r	subtalar_angle_r	mtp_angle_r	hip_flexion_l	hip_adduction_l	hip_rotation_l	knee_angle_l	knee_angle_l_beta	ankle_angle_l	subtalar_angle_l	mtp_angle_l	lumbar_extension	lumbar_bending	lumbar_rotation	arm_flex_r	arm_add_r	arm_rot_r	elbow_flex_r	pro_sup_r	wrist_flex_r	wrist_dev_r	arm_flex_l	arm_add_l	arm_rot_l	elbow_flex_l	pro_sup_l	wrist_flex_l	wrist_dev_l
     14.75000000000000000000	     31.77616241514314765482	     -4.61500502893267849913	   -178.31782428008844476608	      0.29423935647627752488	      0.80240944600167340983	     -0.94982737819351747977	     65.10123166409175610170	    -38.45982897919873266801	    -19.98121332578804398850	     30.57810657446941604576	      0.53368863875021599341	    -15.84804258426284562233	      0.00000000000000000000	      0.00000000000000000000	     58.65084381749296937869	    -29.12262590322145427990	    -23.65070231022803426413	     28.92761118119831920126	      0.50488205984863665510	    -11.64109950627955569757	      0.00000000000000000000	      0.00000000000000000000	    -65.43240191504246183740	      0.94739593373197272808	     -2.39774681778410103661	     78.61844987553979535733	    -13.48201405576262246200	     60.30061122603653700480	      2.78976227593092618307	     61.50606362109954972084	      0.00000000000000000000	      0.00000000000000000000	     83.79046542500164207468	    -13.63943496321758175327	     59.18003422340074592967	     15.03683364912710374028	     80.94298269201742357382	      0.00000000000000000000	      0.00000000000000000000
     14.75500000000000078160	     31.79126385564408607820	     -4.61915582173190220061	   -178.31502516132724167619	      0.29430769677655133076	      0.80243550848831435296	     -0.94986455267992309093	     65.11281859509962544053	    -38.45329896877436937075	    -19.96966407086267381032	     30.55499142322748440392	      0.53328520325394779267	    -15.87817483744695401526	      0.00000000000000000000	      0.00000000000000000000	     58.64030614548155284638	    -29.09970130045910963190	    -23.65049694270283708875	     28.86084829078070868036	      0.50371682759270119956	    -11.69580006580405751038	      0.00000000000000000000	      0.00000000000000000000	    -65.42376281963608164460	      0.94205127230063023802	     -2.38827706566980557668	     78.61617463004881756206	    -13.49382814108122197183	     60.33629505703251538762	      2.80281803613346758297	     60.94470020359091222417	      0.00000000000000000000	      0.00000000000000000000	     83.82806709271372369585	    -13.73173107812643678471	     59.74528154293110304707	     15.18225590340875719164	     80.29231119659314686032	      0.00000000000000000000	      0.00000000000000000000
     14.75999999999999978684	     31.82272438364952904521	     -4.64494148622408342675	   -178.37074622469299356453	      0.29440216903874993903	      0.80240731656716235420	     -0.95003704278318734655	     65.17003469267100967954	    -38.38143254606071508306	    -19.86829373732222947524	     30.50757382240134774065	      0.53245760999613533926	    -15.88039663071152673979	      0.00000000000000000000	      0.00000000000000000000	     58.62547733279692607766	    -29.13529704787427121460	    -23.72923077730925811579	     28.83154569332759109557	      0.50320540078775777282	    -11.73550381425800459567	      0.00000000000000000000	      0.00000000000000000000	    -65.39601222786095036099	      0.87453642382969987157	     -2.37498939398165775927	     78.57936104588121395409	    -13.54546836009800436784	     60.56429399465353213827	      2.92530329874076944208	     59.91796269798705765197	      0.00000000000000000000	      0.00000000000000000000	     83.79451957547018992045	    -13.71357293844612357248	     59.67347212856028448869	     15.22113468894539423104	     79.28559347982647409481	      0.00000000000000000000	      0.00000000000000000000
     14.76500000000000056843	     31.78153620517280586455	     -4.58045541349883666982	   -178.23175081969802135973	      0.29435998493354043060	      0.80250916087243684416	     -0.94981383948351838509	     65.07099428944833618971	    -38.54835952688378597486	    -20.15593114710778621657	     30.63435199260276320388	      0.53467030648580382568	    -15.84538843498251203812	      0.00000000000000000000	      0.00000000000000000000	     58.63891801266397152403	    -29.02616067917267628218	    -23.56626974343797797928	     28.75244146744678985783	      0.50182477159389649035	    -11.77297616608885810763	      0.00000000000000000000	      0.00000000000000000000	    -65.43556299526585462445	      1.06094455582711533204	     -2.35649326259947278217	     78.59208760110587377312	    -13.57034540448643333832	     60.89070290799511298019	      2.94111599179530180947	     58.97361462678856014463	      0.00000000000000000000	      0.00000000000000000000	     83.74439816350231069464	    -13.49922087224684119633	     59.19849625475994514545	     14.91557420649516529920	     77.87969555210048611116	      0.00000000000000000000	      0.00000000000000000000
     14.76999999999999957367	     31.84045093284024119384	     -4.40628290503675135170	   -178.17263694050939193403	      0.29450449091333591456	      0.80245778755822860795	     -0.94969787673911432169	     64.88778432748343050207	    -38.47581208754549209061	    -20.43935614893690555505	     30.44764959475837429181	      0.53141173492205084905	    -16.02501578369299295446	      0.00000000000000000000	      0.00000000000000000000	     58.88871529330086218579	    -29.10011611061106151510	    -23.27984244563485560775	     28.86827976250815552817	      0.50384653124261402635	    -11.77418458055018390951	      0.00000000000000000000	      0.00000000000000000000	    -65.36955704461783511761	      1.23773127468460297784	     -2.18577869726959717056	     78.65467653561904626258	    -13.59253308379499181058	     60.99787747348558752947	      2.83424733926432814712	     58.01195667761410135199	      0.00000000000000000000	      0.00000000000000000000	     83.57435424417536751207	    -13.42525508252250432406	     58.57213250636215917666	     15.06627594282038451468	     76.29384637220772447108	      0.00000000000000000000	      0.00000000000000000000
     14.77500000000000035527	     31.86462647322845143094	     -4.62462521622826638890	   -178.30354208882374678069	      0.29464789782226363801	      0.80239604195350222593	     -0.95002141149300145528	     65.23390120497917621378	    -38.46263274071579729707	    -19.98129143702162124896	     30.57553338923209196309	      0.53364372819556094019	    -15.98415063591259155373	      0.00000000000000000000	      0.00000000000000000000	     58.70098448518800182683	    -29.07915459813505520970	    -23.64958702287781733276	     28.78393631937781549368	      0.50237446045752098822	    -11.77758038817166230672	      0.00000000000000000000	      0.00000000000000000000	    -65.37086681197531845555	      0.94859681074554702551	     -2.34892246321732445224	     78.69336303622092998467	    -13.67856489814670872818	     61.01133648836789546976	      2.95286451408365779869	     60.11571747867528614506	      0.00000000000000000000	      0.00000000000000000000	     83.91667084773152396338	    -13.70682908456612913994	     59.80082641552238698068	     15.13756500108259217541	     80.65370399776362830835	      0.00000000000000000000	      0.00000000000000000000
     14.77999999999999936051	     31.87516516373403163698	     -4.63275701097283842955	   -178.32577623438095315578	      0.29474664560217905818	      0.80243858560789582679	     -0.95010600609779993775	     65.24347206252525666059	    -38.42547695040772737229	    -19.96424535865338256713	     30.53399241067110736481	      0.53291870134517138613	    -15.97618059337948537291	      0.00000000000000000000	      0.00000000000000000000	     58.68059073381343182518	    -29.09757770613432725781	    -23.71256803465137963371	     28.74990756701701144493	      0.50178054668847915654	    -11.82132784535569491879	      0.00000000000000000000	      0.00000000000000000000	    -65.37101593909132191129	      0.92389892964685549348	     -2.32812033433446741171	     78.84542651750717823234	    -13.68766735319999128251	     60.90835240573745323900	      2.84105319350586338345	     61.98555875571663875689	      0.00000000000000000000	      0.00000000000000000000	     83.92277536725062248024	    -13.65885273887340645160	     59.47388598744680621166	     15.09051471218171158739	     81.07396365718668107547	      0.00000000000000000000	      0.00000000000000000000
